<svg width="24" height="24" viewBox="0 0 24 24" fill="none" xmlns="http://www.w3.org/2000/svg">
<path fill-rule="evenodd" clip-rule="evenodd" d="M21.3625 14.618C21.3625 14.618 23.3029 16.5344 23.7829 17.4212C23.7922 17.434 23.7995 17.4482 23.8045 17.4632C24.0001 17.7908 24.0481 18.0476 23.9521 18.2372C23.7901 18.5504 23.2417 18.7076 23.0557 18.7208H19.6261C19.3873 18.7208 18.8905 18.6584 18.2857 18.2408C17.8237 17.918 17.3641 17.3864 16.9189 16.8668C16.2541 16.0952 15.6793 15.4256 15.0973 15.4256C15.0238 15.4254 14.9508 15.4376 14.8813 15.4616C14.4409 15.6008 13.8817 16.2284 13.8817 17.9C13.8817 18.4232 13.4689 18.7208 13.1797 18.7208H11.6089C11.0737 18.7208 8.28731 18.5336 5.81651 15.9284C2.78891 12.7388 0.0697081 6.3404 0.0433081 6.284C-0.125892 5.87 0.229308 5.6444 0.613308 5.6444H4.07651C4.54091 5.6444 4.69211 5.9252 4.79771 6.1772C4.92011 6.4664 5.37371 7.6232 6.11771 8.9228C7.32251 11.0372 8.06291 11.8976 8.65451 11.8976C8.76566 11.8979 8.87493 11.869 8.97131 11.8136C9.74411 11.3888 9.60011 8.6288 9.56411 8.06C9.56411 7.9496 9.56291 6.8276 9.16691 6.2852C8.88371 5.8964 8.40131 5.7452 8.10971 5.69C8.18771 5.5772 8.35331 5.4044 8.56571 5.3024C9.09491 5.0384 10.0513 5 11.0005 5H11.5273C12.5569 5.0144 12.8233 5.0804 13.1977 5.1752C13.9513 5.3552 13.9657 5.8436 13.8997 7.5068C13.8805 7.982 13.8601 8.5172 13.8601 9.1472C13.8601 9.2816 13.8541 9.4316 13.8541 9.584C13.8313 10.4372 13.8013 11.3984 14.4037 11.7932C14.4818 11.8419 14.5721 11.8676 14.6641 11.8676C14.8729 11.8676 15.4981 11.8676 17.1937 8.9576C17.9377 7.6724 18.5137 6.1568 18.5533 6.0428C18.5869 5.9792 18.6877 5.8004 18.8101 5.7284C18.8972 5.68207 18.9947 5.65893 19.0933 5.6612H23.1673C23.6113 5.6612 23.9125 5.7284 23.9713 5.8964C24.0697 6.1688 23.9521 7.0004 22.0921 9.5156C21.7789 9.9344 21.5041 10.2968 21.2629 10.6136C19.5769 12.8264 19.5769 12.938 21.3625 14.618Z" fill="white"/>
</svg>
